<svg width="14" height="13" viewBox="0 0 14 13" fill="none" xmlns="http://www.w3.org/2000/svg">
<path d="M10.7416 5.25H10.7426C10.8298 5.22531 10.919 5.16494 10.9916 5.09277C11.0634 5.02139 11.1236 4.93297 11.1489 4.84473C11.153 4.83237 11.1563 4.81515 11.1586 4.79785C11.1611 4.77934 11.1634 4.75585 11.1655 4.72949C11.1696 4.67678 11.1733 4.60837 11.1762 4.5293C11.1821 4.37074 11.185 4.16762 11.185 3.95898V3.24902H11.895C12.1036 3.24902 12.3065 3.24455 12.4662 3.23828C12.5459 3.23515 12.6155 3.23149 12.6694 3.22754L12.7866 3.21484L12.7885 3.21387C12.8824 3.18697 12.9765 3.116 13.0502 3.03223C13.124 2.94826 13.1836 2.84433 13.2006 2.74414C13.2177 2.64317 13.1936 2.52793 13.1459 2.42578C13.1099 2.34875 13.0582 2.27554 12.9965 2.21875L12.9321 2.16797C12.904 2.14928 12.8771 2.13195 12.8403 2.11914C12.8041 2.10661 12.7607 2.09888 12.6987 2.09375C12.5753 2.08354 12.3653 2.08301 11.9653 2.08301H11.185V1.33984C11.185 0.962764 11.184 0.760079 11.1743 0.634766C11.1693 0.571744 11.1622 0.526139 11.1508 0.486328C11.1394 0.44625 11.1247 0.413629 11.1069 0.37793L11.1059 0.376953C11.0823 0.331626 11.049 0.282719 11.0131 0.240234C10.9775 0.198101 10.9366 0.158657 10.8989 0.134766L10.8979 0.135742C10.8131 0.0796525 10.7019 0.0512054 10.5932 0.0498047C10.4841 0.0484742 10.3709 0.0731263 10.2856 0.12793C10.2316 0.162314 10.1839 0.193881 10.1469 0.236328C10.1084 0.280513 10.0835 0.333758 10.0668 0.40918C10.0347 0.554876 10.0289 0.800797 10.019 1.26562L10.0024 2.06738L9.2016 2.08301C8.79661 2.09131 8.581 2.09654 8.45453 2.1084C8.39097 2.11437 8.34597 2.12249 8.31 2.13477C8.27324 2.14737 8.24742 2.16325 8.22113 2.18164L8.22015 2.18262C7.88376 2.42447 7.91479 2.94441 8.27777 3.15527L8.37445 3.19824C8.41263 3.20917 8.45909 3.21713 8.52386 3.22266C8.65313 3.23368 8.86486 3.2372 9.24554 3.24219L10.019 3.25195V4.01855C10.019 4.34649 10.0212 4.55712 10.0287 4.69531C10.0362 4.83101 10.049 4.90592 10.0746 4.95508L10.1274 5.03613C10.1876 5.1123 10.2694 5.17223 10.3588 5.21191C10.4782 5.26486 10.6156 5.28337 10.7416 5.25Z" fill="currentColor" stroke="currentColor" stroke-width="0.1"/>
<path d="M2.6557 3.24561C3.7439 3.24561 4.30171 3.24479 4.60785 3.2251C4.76066 3.21526 4.85598 3.20099 4.92426 3.17725C4.99525 3.15252 5.03549 3.11835 5.07855 3.07959L5.1264 3.03076C5.34725 2.77458 5.2924 2.36177 4.99945 2.16748L4.89008 2.09229L4.87738 2.08252H0.434021L0.421326 2.09229L0.311951 2.16748L0.257263 2.20947C-0.00407651 2.43104 -0.0249456 2.84573 0.232849 3.07959L0.300232 3.1333C0.324429 3.14961 0.351723 3.16492 0.387146 3.17725C0.455422 3.20099 0.550746 3.21526 0.703552 3.2251C1.00972 3.24479 1.56757 3.24561 2.6557 3.24561Z" fill="currentColor" stroke="currentColor" stroke-width="0.1"/>
<path d="M4.36163 12.0121C4.52353 12.0121 4.66378 11.9551 4.76398 11.8549C4.86418 11.7547 4.9212 11.6144 4.9212 11.4525C4.9212 11.4047 4.91653 11.3534 4.90948 11.309C4.9027 11.2662 4.89281 11.2238 4.87921 11.1967C4.87363 11.1856 4.86245 11.1714 4.85187 11.1586C4.83959 11.1437 4.82309 11.1243 4.80304 11.1019C4.7629 11.0571 4.70743 10.9974 4.64093 10.9271C4.50771 10.7864 4.32888 10.6024 4.13702 10.4105L3.47589 9.74744L4.12726 9.099C4.31558 8.91068 4.49212 8.72951 4.62531 8.58923C4.69189 8.5191 4.74833 8.45841 4.78937 8.41248C4.80977 8.38963 4.82726 8.36959 4.84015 8.35388C4.85186 8.33959 4.86251 8.325 4.86847 8.31384C4.88551 8.28189 4.89895 8.23465 4.90753 8.18787C4.91628 8.14003 4.9212 8.08699 4.9212 8.04041C4.92116 7.87857 4.86415 7.73823 4.76398 7.63806C4.66378 7.53791 4.52349 7.48084 4.36163 7.48083C4.31502 7.48083 4.26204 7.48575 4.21417 7.49451C4.16739 7.50309 4.12015 7.51653 4.0882 7.53357C4.07692 7.5396 4.06259 7.55102 4.04816 7.56287C4.03245 7.57576 4.01241 7.59226 3.98956 7.61267C3.94362 7.65371 3.88294 7.71015 3.81281 7.77673C3.67253 7.90992 3.49136 8.08646 3.30304 8.27478L2.6546 8.92615L1.99152 8.26501C1.79966 8.07316 1.61565 7.89433 1.47491 7.76111C1.4047 7.69464 1.34496 7.63911 1.30011 7.599C1.27773 7.57898 1.25832 7.56244 1.24347 7.55017L1.20538 7.52283C1.13515 7.48687 1.02966 7.4768 0.930969 7.48279C0.831551 7.48884 0.72592 7.51183 0.654602 7.55408L0.653625 7.55505C0.60356 7.5857 0.544726 7.63954 0.501282 7.69275L0.464172 7.74451C0.417998 7.81954 0.393882 7.92654 0.389954 8.02869C0.38604 8.13053 0.401858 8.23787 0.442688 8.31384C0.448699 8.32511 0.460136 8.33944 0.471985 8.35388C0.484866 8.36958 0.501411 8.38966 0.52179 8.41248C0.562829 8.45841 0.619268 8.5191 0.685852 8.58923C0.819034 8.72951 0.995572 8.91067 1.1839 9.099L1.83429 9.74744L1.17413 10.4105C0.982274 10.6024 0.803448 10.7864 0.670227 10.9271C0.603726 10.9974 0.548249 11.0571 0.508118 11.1019C0.488066 11.1243 0.471572 11.1437 0.45929 11.1586C0.44871 11.1714 0.437509 11.1856 0.431946 11.1967C0.41835 11.2238 0.408461 11.2662 0.401672 11.309C0.394629 11.3534 0.389954 11.4047 0.389954 11.4525C0.389958 11.6144 0.44702 11.7547 0.54718 11.8549C0.647356 11.955 0.78768 12.012 0.949524 12.0121C0.996112 12.0121 1.04915 12.0072 1.09698 11.9984C1.14377 11.9898 1.19101 11.9764 1.22296 11.9594C1.23412 11.9534 1.24871 11.9427 1.263 11.931C1.27871 11.9181 1.29874 11.9007 1.32159 11.8802C1.36753 11.8392 1.42822 11.7828 1.49835 11.7162C1.63863 11.583 1.8198 11.4065 2.00812 11.2181L2.65558 10.5677L3.31964 11.2279C3.5115 11.4198 3.6955 11.5986 3.83624 11.7318C3.90649 11.7983 3.96618 11.8538 4.01105 11.8939C4.03346 11.914 4.05282 11.9305 4.06769 11.9427C4.0805 11.9533 4.09476 11.9645 4.10577 11.9701C4.13296 11.9837 4.17536 11.9936 4.21808 12.0004C4.26254 12.0074 4.31384 12.0121 4.36163 12.0121Z" fill="currentColor" stroke="currentColor" stroke-width="0.1"/>
<path d="M10.6323 8.77332C11.7113 8.76832 12.2627 8.76577 12.5552 8.75574C12.7005 8.75075 12.7854 8.74413 12.8403 8.73328C12.8685 8.72771 12.8908 8.7207 12.9097 8.71179C12.9275 8.70331 12.9408 8.69331 12.9526 8.68445H12.9536C13.3092 8.42684 13.2715 7.88102 12.8765 7.69031L12.8774 7.68933C12.8405 7.67043 12.807 7.65532 12.7446 7.64441C12.6849 7.63396 12.5984 7.6271 12.4546 7.62292C12.1658 7.61457 11.6346 7.6154 10.5991 7.61707C10.0175 7.61707 9.47815 7.62197 9.07764 7.62781C8.8774 7.63072 8.71138 7.63413 8.59229 7.63757C8.53291 7.63929 8.48469 7.6407 8.44971 7.64246C8.43235 7.64333 8.41791 7.64448 8.40674 7.64539C8.39708 7.64617 8.38546 7.64729 8.37744 7.64929H8.37451C8.12686 7.72706 7.97214 7.97382 7.99365 8.25085C8.00245 8.35641 8.02715 8.44499 8.07568 8.52039C8.12412 8.59554 8.19372 8.65441 8.28467 8.70691H8.28564C8.31853 8.72518 8.34822 8.7403 8.40869 8.75085C8.4658 8.7608 8.55135 8.76762 8.69775 8.77136C8.99191 8.77888 9.54353 8.77665 10.6323 8.77332Z" fill="currentColor" stroke="currentColor" stroke-width="0.1"/>
<path d="M12.4502 11.8715C12.5964 11.8675 12.6833 11.8611 12.7432 11.851C12.8053 11.8404 12.8384 11.8255 12.876 11.808L12.877 11.807C13.17 11.6623 13.2884 11.3305 13.1387 11.0443L13.1396 11.0433C13.1163 10.9985 13.0841 10.9506 13.0518 10.9095C13.02 10.8692 12.9845 10.8322 12.9541 10.8099L12.9551 10.809C12.9427 10.7997 12.9281 10.7895 12.9092 10.7806C12.8904 10.7719 12.8687 10.7656 12.8408 10.7601C12.7857 10.7493 12.7005 10.7425 12.5547 10.7377C12.2613 10.7281 11.7083 10.7264 10.626 10.723C9.63512 10.718 9.08014 10.7173 8.76074 10.724C8.60143 10.7273 8.49894 10.7319 8.42969 10.7396C8.39485 10.7435 8.3675 10.7486 8.34473 10.7543L8.28809 10.7748C8.11334 10.8604 8.01204 11.024 7.99414 11.2416C7.98538 11.3519 7.99614 11.4463 8.03516 11.5316C8.07418 11.6167 8.13918 11.6886 8.22949 11.7582L8.34961 11.8519L8.36328 11.8627H8.37988L10.5459 11.8724C11.6147 11.8774 12.1572 11.8794 12.4502 11.8715Z" fill="currentColor" stroke="currentColor" stroke-width="0.1"/>
</svg>
