<svg width="27" height="20" viewBox="0 0 27 20" fill="none" xmlns="http://www.w3.org/2000/svg">
<path d="M17.2177 0.0567217C16.5582 -0.187944 15.9359 0.397128 16.138 1.07262L16.1912 1.24282L19.9596 5.02718L23.7307 8.80887L12.1489 8.81153C1.42877 8.81419 0.561795 8.81951 0.420846 8.90195C-0.140292 9.22906 -0.140292 10.0109 0.420846 10.338C0.561795 10.4205 1.42877 10.4258 12.1489 10.4285L23.7307 10.4311L19.9596 14.2128L16.1912 17.9972L16.138 18.1674C16.0077 18.6009 16.2444 19.0769 16.6566 19.2072C16.8215 19.2604 17.0901 19.2418 17.2523 19.17C17.3853 19.1115 17.9065 18.5955 21.9329 14.5585L26.4619 10.0136L26.5124 9.80349C26.5496 9.64393 26.5443 9.53755 26.4938 9.37533L26.4193 9.15726L21.8983 4.63624C17.5661 0.304049 17.3667 0.10991 17.2177 0.0567217Z" fill="currentColor"/>
</svg>
