<svg width="17" height="17" viewBox="0 0 17 17" fill="none" xmlns="http://www.w3.org/2000/svg">
<path d="M7.6827 0.0107327C5.91582 0.182558 4.50555 0.730453 3.16013 1.76789C2.80675 2.04022 2.03192 2.81505 1.75959 3.16843C0.83238 4.36796 0.29421 5.63234 0.0607873 7.15607C-0.0202624 7.67803 -0.0202624 8.9035 0.0607873 9.42546C0.29421 10.9492 0.83238 12.2136 1.75959 13.4131C2.03192 13.7665 2.80675 14.5413 3.16013 14.8136C4.17487 15.595 5.30308 16.1299 6.49937 16.3957C7.1348 16.5351 7.4979 16.5708 8.28247 16.5708C9.06703 16.5708 9.43013 16.5351 10.0656 16.3957C11.2619 16.1299 12.3901 15.595 13.4048 14.8136C13.7582 14.5413 14.533 13.7665 14.8053 13.4131C15.5867 12.3984 16.1216 11.2702 16.3874 10.0739C16.5268 9.43843 16.5625 9.07533 16.5625 8.29077C16.5625 7.50621 16.5268 7.1431 16.3874 6.50767C16.1216 5.31138 15.5867 4.18317 14.8053 3.16843C14.533 2.81505 13.7582 2.04022 13.4048 1.76789C12.2247 0.860133 10.9701 0.315479 9.51442 0.0852985C9.12538 0.0237007 8.01014 -0.0216866 7.6827 0.0107327ZM9.05406 1.32374C10.6361 1.49556 12.0821 2.19583 13.2297 3.3435C14.0111 4.12806 14.5622 5.00663 14.9091 6.01489C15.4181 7.49648 15.4181 9.08505 14.9091 10.5666C14.5622 11.5749 14.0111 12.4535 13.2297 13.238C12.4452 14.0194 11.5666 14.5705 10.5583 14.9174C9.07675 15.4264 7.48818 15.4264 6.00659 14.9174C4.99833 14.5705 4.11975 14.0194 3.33519 13.238C2.55387 12.4535 2.00274 11.5749 1.65584 10.5666C1.24411 9.36062 1.1663 8.08004 1.42891 6.82539C1.58128 6.09918 1.92817 5.23357 2.32045 4.60787C2.86511 3.73577 3.72747 2.87341 4.59957 2.32875C5.41331 1.81976 6.52531 1.43072 7.47197 1.32374C7.82859 1.28483 8.69096 1.28159 9.05406 1.32374Z" fill="black" fill-opacity="0.5"/>
<path d="M8.00365 3.91085C7.85776 3.97893 7.72808 4.12806 7.66972 4.29988C7.62109 4.45226 7.61785 8.31671 7.66972 8.5015C7.68918 8.57282 7.73456 8.67332 7.77347 8.7252C7.86424 8.85488 10.5162 10.8357 10.6653 10.8844C11.1776 11.0529 11.6639 10.4856 11.4272 9.99281C11.3623 9.85665 11.2294 9.74966 10.1434 8.93268L8.93086 8.02493V6.2159C8.93086 4.95152 8.92113 4.37769 8.8952 4.29988C8.80118 4.02432 8.56451 3.84925 8.28246 3.84925C8.20141 3.84925 8.07497 3.87843 8.00365 3.91085Z" fill="currentColor" fill-opacity="0.5"/>
</svg>
